<!-- icon666.com - MILLIONS OF FREE VECTOR ICONS --><svg id="Layer_2" enable-background="new 0 0 100 100" viewBox="0 0 100 100" xmlns="http://www.w3.org/2000/svg"><g><path d="m79.7514648 17.8364258c-2.8125 0-5.1010742 2.2885742-5.1010742 5.1010742v20.6479492c0 .7382812-.6005859 1.3388672-1.3388672 1.3388672-.737793 0-1.3383789-.6005859-1.3383789-1.3388672v-30.2514648c0-2.8129883-2.2880859-5.1010742-5.1010742-5.1010742s-5.1010742 2.2880859-5.1010742 5.1010742v30.2514648c0 .7382812-.6005859 1.3388672-1.3388672 1.3388672-.737793 0-1.3383789-.6005859-1.3383789-1.3388672v-32.9956054c0-2.8125-2.2885742-5.1010742-5.1010742-5.1010742s-5.1010742 2.2885742-5.1010742 5.1010742v32.9956055c0 .7382812-.6005859 1.3388672-1.3388672 1.3388672h-.3007812c-.737793 0-1.3383789-.6005859-1.3383789-1.3388672v-27.5078126c0-2.8125-2.2880859-5.1010742-5.1010742-5.1010742-2.8125 0-5.1010742 2.2885742-5.1010742 5.1010742v46.1494141l-8.8188477-8.8188477c-2.5600586-2.5600586-6.7255859-2.559082-9.284668 0l-.4560547.4560547c-2.3740234 2.3745117-2.6630859 6.1904297-.671875 8.8759766 7.1689453 9.6708984 13.8901367 17.4570312 19.9770508 23.1411133 6.0214844 5.6230469 13.8549805 8.5947266 21.6240234 8.5947266 4.2822266 0 8.5449219-.9033203 12.4726562-2.7631836 3.6582031-1.7324219 6.7290039-4.1152344 9.1264648-7.0834961 3.3354493-4.1293946 5.1723634-9.5297852 5.1723634-15.206543v-46.4853516c0-2.8125-2.2885743-5.1010742-5.1010743-5.1010742zm3.1010743 51.5864258c0 5.2207031-1.6791992 10.1748047-4.7280273 13.949707-2.2070312 2.7324219-5.0424805 4.9301758-8.4262695 6.5327148-10.3208008 4.8862305-23.1293945 2.6821289-31.8759766-5.4858398-5.9985352-5.6015625-12.6386719-13.2963867-19.7358398-22.8706055-1.4052734-1.8955078-1.1992188-4.5913086.4794922-6.2705078l.4560547-.4560547c.8901367-.8901367 2.059082-1.3349609 3.2285156-1.3349609 1.1689453 0 2.3378906.4448242 3.2280273 1.3349609l10.5258789 10.5258789c.2861328.2856445.7143555.3701172 1.0898438.2167969.3735352-.1547852.6171875-.5195312.6171875-.9238281v-48.5634766c0-1.7099609 1.3911133-3.1010742 3.1010742-3.1010742s3.1010742 1.3911133 3.1010742 3.1010742v27.5078125c0 1.8408203 1.4975586 3.3388672 3.3383789 3.3388672h.3007812c1.8408203 0 3.3388672-1.4980469 3.3388672-3.3388672v-32.9956054c0-1.7099609 1.3911133-3.1010742 3.1010742-3.1010742s3.1010742 1.3911132 3.1010742 3.1010742v32.9956055c0 1.8408203 1.4975586 3.3388672 3.3383789 3.3388672s3.3388672-1.4980469 3.3388672-3.3388672v-30.2514649c0-1.7099609 1.3911133-3.1010742 3.1010742-3.1010742s3.1010742 1.3911133 3.1010742 3.1010742v30.2514648c0 1.8408203 1.4975586 3.3388672 3.3383789 3.3388672s3.3388672-1.4980469 3.3388672-3.3388672v-20.6479492c0-1.7099609 1.3911133-3.1010742 3.1010742-3.1010742s3.1010742 1.3911133 3.1010742 3.1010742v46.4853516z"></path></g></svg>